<svg width="19" height="20" viewBox="0 0 19 20" fill="none" xmlns="http://www.w3.org/2000/svg">
<path fill-rule="evenodd" clip-rule="evenodd" d="M0.15994 13.5815C0.133653 12.5973 0.129645 12.2836 0.177995 9.77878C0.226344 7.27396 0.243294 6.96065 0.306688 5.97903C0.370082 4.99741 0.539788 4.3298 0.778292 3.74738C1.02236 3.1374 1.3961 2.58694 1.87444 2.13494C2.34373 1.67438 2.90735 1.32298 3.52712 1.10349C4.11832 0.886801 4.79197 0.743824 5.77364 0.717488C6.75951 0.691233 7.07323 0.687225 9.57721 0.735559C12.082 0.783909 12.3953 0.800859 13.3778 0.864269C14.3577 0.92763 15.0253 1.09734 15.6078 1.33668C16.2187 1.57993 16.7692 1.95343 17.2211 2.43117C17.6816 2.90129 18.033 3.46575 18.2525 4.08468C18.4692 4.67589 18.6122 5.34953 18.6385 6.33121C18.6648 7.31624 18.6688 7.62995 18.6204 10.1348C18.5721 12.6396 18.5551 12.9529 18.4917 13.9354C18.4284 14.9153 18.2587 15.5829 18.0193 16.1653C17.776 16.7762 17.4025 17.3268 16.9248 17.7786C16.4553 18.2389 15.891 18.5911 15.2713 18.8109C14.6801 19.0268 14.0065 19.1697 13.0248 19.1961C12.0389 19.2223 11.7252 19.2263 9.22122 19.178C6.7164 19.1296 6.40309 19.1127 5.42147 19.0493C4.43985 18.9859 3.77224 18.8162 3.18982 18.5777C2.57906 18.3338 2.0288 17.9598 1.57737 17.4815C1.11724 17.0122 0.764958 16.4482 0.545087 15.8289C0.329236 15.2377 0.186259 14.564 0.159923 13.5823L0.15994 13.5815ZM1.96507 6.08568C1.90187 7.05724 1.88702 7.34879 1.83949 9.81085C1.79197 12.2729 1.79556 12.5648 1.82122 13.5381C1.84493 14.4384 1.98557 14.9292 2.10587 15.2569C2.26523 15.6901 2.45796 16.0016 2.77448 16.3306C3.06621 16.6423 3.424 16.8847 3.82162 17.0402C4.14443 17.173 4.62942 17.3325 5.52811 17.3909C6.49968 17.4541 6.79122 17.469 9.25329 17.5165C11.7154 17.564 12.0073 17.5604 12.9805 17.5348C13.8808 17.5111 14.3716 17.3704 14.6993 17.2501C15.102 17.1103 15.4695 16.8817 15.773 16.5815C16.0848 16.2898 16.3273 15.9314 16.4826 15.5344C16.6154 15.2116 16.7749 14.7266 16.8334 13.8279C16.8966 12.8563 16.9114 12.5656 16.9589 10.1027C17.0065 7.6398 17.0029 7.34873 16.9772 6.37545C16.9535 5.47517 16.8129 4.98439 16.6926 4.65669C16.5332 4.22341 16.3405 3.91192 16.0239 3.58295C15.7323 3.27123 15.3738 3.02866 14.9768 2.8734C14.654 2.74054 14.169 2.58107 13.2703 2.52263C12.2987 2.45943 12.0072 2.44458 9.54514 2.39706C7.08307 2.34953 6.79117 2.35312 5.81789 2.37878C4.91761 2.40249 4.42683 2.54313 4.09913 2.66343C3.66585 2.82279 3.35436 3.01553 3.02538 3.33204C2.71372 3.62379 2.47128 3.98158 2.31584 4.37918C2.18298 4.70199 2.02351 5.18698 1.96507 6.08568ZM12.2191 11.1894C12.5056 10.537 12.5567 9.80524 12.3637 9.11927C12.1706 8.43329 11.7454 7.83562 11.1607 7.42833C10.5759 7.02104 9.86787 6.82939 9.15751 6.88613C8.44715 6.94287 7.77853 7.24447 7.26583 7.73942C6.93812 8.05492 6.68443 8.43915 6.52304 8.86446C6.36165 9.28977 6.29656 9.74558 6.33247 10.1991C6.36837 10.6525 6.50438 11.0924 6.73069 11.487C6.95701 11.8817 7.268 12.2212 7.64128 12.4812C8.01457 12.7412 8.44085 12.9152 8.88945 12.9906C9.33805 13.0661 9.7978 13.0412 10.2356 12.9176C10.6734 12.7941 11.0784 12.575 11.4214 12.2762C11.7644 11.9774 12.0368 11.6062 12.2191 11.1894ZM5.98303 13.2436C5.5514 12.795 5.21236 12.2657 4.98526 11.6861C4.75817 11.1064 4.64747 10.4877 4.65948 9.86529C4.6715 9.24286 4.80599 8.62889 5.05529 8.05844C5.30458 7.48798 5.66379 6.97222 6.11241 6.54059C6.56103 6.10896 7.09027 5.76992 7.66992 5.54283C8.24957 5.31573 8.86827 5.20503 9.4907 5.21705C10.1131 5.22906 10.7271 5.36356 11.2976 5.61285C11.868 5.86215 12.3838 6.22136 12.8154 6.66998C13.6871 7.576 14.1632 8.79121 14.1389 10.0483C14.1147 11.3053 13.592 12.5012 12.686 13.373C11.78 14.2447 10.5648 14.7208 9.30772 14.6965C8.05067 14.6722 6.85474 14.1496 5.98303 13.2436ZM5.47713 4.08799C5.37635 3.97693 5.25431 3.88723 5.11825 3.82419C4.98218 3.76115 4.83484 3.72605 4.68496 3.72097C4.53509 3.71589 4.38572 3.74094 4.24569 3.79462C4.10567 3.8483 3.97784 3.92954 3.86977 4.03351C3.7617 4.13749 3.6756 4.26209 3.61655 4.39993C3.5575 4.53778 3.52671 4.68608 3.526 4.83604C3.52529 4.986 3.55468 5.13458 3.61243 5.27298C3.67017 5.41138 3.75509 5.53679 3.86217 5.64178C4.07042 5.84596 4.35005 5.96095 4.6417 5.96233C4.93335 5.9637 5.21405 5.85137 5.42422 5.64916C5.63439 5.44695 5.75748 5.17079 5.76736 4.8793C5.77724 4.58782 5.67313 4.30396 5.47713 4.08799Z" fill="white"/>
</svg>
