<svg width="19" height="19" viewBox="0 0 19 19" fill="none" xmlns="http://www.w3.org/2000/svg">
<path d="M0 2.11111C0 1.55121 0.22242 1.01424 0.61833 0.61833C1.01424 0.22242 1.55121 0 2.11111 0H16.8889C17.4488 0 17.9858 0.22242 18.3817 0.61833C18.7776 1.01424 19 1.55121 19 2.11111V16.8889C19 17.4488 18.7776 17.9858 18.3817 18.3817C17.9858 18.7776 17.4488 19 16.8889 19H2.11111C1.55121 19 1.01424 18.7776 0.61833 18.3817C0.22242 17.9858 0 17.4488 0 16.8889L0 2.11111ZM16.3611 2.63889H10.7667C9.85403 2.63889 8.97877 3.00143 8.33343 3.64677C7.6881 4.2921 7.32556 5.16736 7.32556 6.08C7.32556 6.97722 7.87444 8.02222 8.69778 8.52889H7.52611V11.4739H16.3611V8.52889L11.1572 8.52889C10.3444 8.52889 9.67944 7.87444 9.67944 7.06167C9.67944 6.66973 9.83514 6.29386 10.1123 6.01672C10.3894 5.73958 10.7653 5.58389 11.1572 5.58389L16.3611 5.58389V2.63889ZM5.86889 14.9044C5.86889 14.4341 5.68206 13.9831 5.34949 13.6505C5.01693 13.3179 4.56587 13.1311 4.09556 13.1311C3.11389 13.1311 2.31167 13.9228 2.31167 14.9044C2.31167 15.3776 2.49961 15.8313 2.83416 16.1658C3.1687 16.5004 3.62244 16.6883 4.09556 16.6883C5.07722 16.6883 5.86889 15.8861 5.86889 14.9044ZM16.3611 13.4372H7.52611V16.3611H16.3611V13.4372Z" fill="white"/>
</svg>
