<svg width="21" height="24" viewBox="0 0 21 24" fill="none" xmlns="http://www.w3.org/2000/svg">
<path d="M3.4408 0.484416C3.80174 1.34336 4.03907 2.26318 4.13576 3.22722C3.56109 2.22334 2.64081 1.46283 1.54664 1.0876C2.08247 2.03068 2.4526 3.05867 2.64095 4.12687C1.86305 4.82773 1.33831 5.76582 1.14819 6.79548C0.958072 7.82514 1.11321 8.88876 1.58952 9.82121C2.06584 10.7537 2.83667 11.5028 3.78236 11.9522C4.72804 12.4017 5.79566 12.5264 6.81946 12.3069C6.68814 14.1944 6.16141 16.0331 5.27346 17.7038C4.38552 19.3745 3.1562 20.8398 1.66529 22.0047C2.36119 22.4262 3.17262 22.6766 4.04162 22.6933C4.82391 22.7089 5.59794 22.5311 6.29505 22.1758C6.99215 21.8204 7.59077 21.2985 8.03779 20.6563C7.99922 21.4104 7.78111 22.1443 7.40161 22.797L7.46281 22.7982C8.56001 22.8194 9.63078 22.4604 10.4934 21.7821C11.3561 21.1037 11.9574 20.1478 12.1955 19.0765C12.3714 19.7801 12.3852 20.5144 12.2357 21.2241C13.1856 20.9389 14.0226 20.3637 14.6294 19.5792C15.2363 18.7947 15.5826 17.84 15.6199 16.8489C16.9087 18.5575 17.5852 20.65 17.5408 22.7896C17.5336 23.1687 17.5041 23.547 17.4526 23.9225C18.891 21.7775 19.681 19.2635 19.7279 16.6813C19.8967 7.9403 12.7493 3.02208 6.47045 2.90088C6.26646 2.89694 6.06033 2.89807 5.85617 2.90331C5.20193 1.96086 4.38506 1.14248 3.44382 0.486514L3.4408 0.484416Z" fill="white"/>
</svg>
