<svg width="20" height="30" viewBox="0 0 20 30" fill="none" xmlns="http://www.w3.org/2000/svg">
<path d="M2.22035 10.1091L2.36345 2.69531L4.16209 2.73003L4.01899 10.1439L2.22035 10.1091ZM9.19348 17.6752C8.44099 16.0212 7.26466 15.1397 5.42143 15.1042C1.77583 15.0338 0.839013 17.7295 0.778542 20.8623L0.612122 29.4839L18.9107 29.8371L19.0818 20.974C19.1459 17.6517 17.6081 14.5029 13.8919 14.4312C11.5953 14.3869 9.87606 15.4392 9.19348 17.6752ZM3.81135 25.5232L3.88415 21.7513C3.9122 20.2982 4.34245 19.0017 6.0296 19.0342C7.58297 19.0642 8.18771 20.0908 8.15995 21.529L8.08126 25.6056L3.81135 25.5232ZM15.9644 21.464L15.8815 25.7599L10.8423 25.6626L10.9269 21.2812C10.961 19.5123 11.7222 18.408 13.5951 18.4442C15.4384 18.4798 15.9961 19.8251 15.9644 21.464ZM13.0515 0.00190064C9.13087 -0.0737775 5.82006 2.15607 5.74001 6.30335C5.66218 10.3354 8.64538 13.1366 12.6254 13.2134C16.7504 13.293 19.6323 10.7501 19.7129 6.57306C19.774 3.41058 18.3902 1.33547 15.3731 0.292075L15.3112 3.49916C16.4379 3.87036 17.005 5.30143 16.9837 6.40514C16.9426 8.53824 15.6724 9.62899 13.5505 9.58803L13.7347 0.0411146C13.5157 0.0257322 13.2856 0.00641981 13.0515 0.00190064ZM11.2538 9.5437C9.51317 9.39486 8.44677 8.21067 8.48034 6.47149C8.51564 4.64312 9.60726 3.74966 11.3681 3.62379L11.2538 9.5437Z" fill="white"/>
</svg>
